<?xml version="1.0" encoding="UTF-8"?>
<svg id="Layer_2" data-name="Layer 2" xmlns="http://www.w3.org/2000/svg" viewBox="0 0 762.33 133">
  <defs>
    <style>
      .cls-1 {
        fill: #2f2a26;
        stroke-width: 0px;
      }
    </style>
  </defs>
  <g id="Layer_1-2" data-name="Layer 1">
    <path class="cls-1" d="M145.81,50.59l8.97-13.05v31.07l-8.97-13.17h-20.43v36.67h16.32v4.84h-39.37v-4.84h13.08V16.03h-13.08v-4.84h59.18l6.73-3.61v25.61l-11.59-17.16h-31.27v34.56h20.43ZM199,98.2c15.07,0,28.9-11.94,28.9-29.09s-13.83-29.09-28.9-29.09-28.78,11.94-28.78,29.09,13.83,29.09,28.78,29.09ZM199,44.37c10.09,0,18.81,10.45,18.81,24.74s-8.72,24.74-18.81,24.74-18.69-10.57-18.69-24.74,8.72-24.74,18.69-24.74ZM245,92.48h-9.09v4.47h31.64v-4.47h-13.33v-36.55l10.59-8.32,9.22,5.84c2.99-1.37,5.36-4.1,5.36-7.21,0-3.73-2.87-6.22-6.73-6.22-4.98,0-9.34,3.86-15.45,10.07h-2.99v-11.31l-20.18,7.83,10.96,5.97v39.9ZM313.37,89.74c-11.58,0-21.92-9.44-21.92-23.49,0-1.12,0-2.24.12-3.23h41.12c-.13-12.55-8.23-23-21.81-23-14.57,0-26.66,14.05-26.66,29.71s11.21,28.47,26.04,28.47c10.34,0,19.44-5.72,21.93-17.53-4.74,6.59-11.09,9.07-18.82,9.07ZM322.97,58.79h-30.53c2.49-8.32,9.22-13.17,16.7-13.17,7.97,0,13.45,5.09,13.83,13.17ZM348.15,49.47l-.62,33.93c0,9.82,6.85,14.8,14.7,14.8s14.7-4.35,17.81-12.93c-3.98,3.98-8.09,5.72-12.95,5.72-5.98,0-10.72-3.48-10.72-11.81v-30.95h18.19l3.62-5.47h-21.81v-12.56l-18.56,16.29,10.34,2.98ZM393.55,92.48h-9.22v4.47h27.66v-4.47h-9.22v-37.54c3.49-3.48,9.09-7.46,15.07-7.46,7.6,0,12.09,4.35,12.09,12.93v32.07h-9.1v4.47h27.54v-4.47h-9.22v-34.56c0-10.56-4.61-17.9-14.7-17.9-8.23,0-14.08,5.1-18.57,9.33h-3.11V0l-21.06,7.83,11.84,5.22v79.43ZM483.95,98.2c15.07,0,28.9-11.94,28.9-29.09s-13.83-29.09-28.9-29.09-28.78,11.94-28.78,29.09,13.82,29.09,28.78,29.09ZM483.95,44.37c10.09,0,18.81,10.45,18.81,24.74s-8.72,24.74-18.81,24.74-18.69-10.57-18.69-24.74,8.72-24.74,18.69-24.74ZM584.52,92.35l-10.96-4.97v-46.98l-19.69,1.99v4.1h10.47v39.15c-2.25,3.23-7.35,6.22-13.33,6.22-7.6,0-12.96-4.73-12.96-14.05v-37.41l-19.56,1.99v4.1h10.34v33.93c0,10.44,5.61,17.78,15.95,17.78,6.23,0,11.83-3.24,16.44-7.09h3.12v7.83l20.18-6.59ZM603.18,77.56c3.36,1.74,7.22,2.74,11.21,2.74,11.83,0,22.55-8.58,22.55-20.14,0-3.98-1.25-7.58-3.49-10.69h14.08v-11.06l-16.57,8.2c-4.11-4.1-10.22-6.59-16.57-6.59-11.84,0-22.55,8.58-22.55,20.14,0,7.21,4.23,13.3,10.21,16.78-4.23,3.98-7.35,8.33-7.35,13.05s3.37,7.83,6.61,9.2v2.49c-6.98,3.35-15.2,8.95-15.2,16.53,0,9.45,10.84,14.79,24.17,14.79,18.81,0,37.62-11.19,37.62-26.72,0-9.33-7.6-14.05-19.06-14.05h-25.66v-14.67ZM614.39,44.13c7.47,0,12.83,7.08,12.83,16.03s-5.36,16.04-12.83,16.04-12.83-7.09-12.83-16.04,5.35-16.03,12.83-16.03ZM639.93,110.38c0,10.44-11.84,17.4-24.42,17.4s-20.06-4.85-20.06-12.43,6.23-12.31,11.96-14.67h16.7c9.47,0,15.82,2.36,15.82,9.7ZM661.34,92.48h-9.22v4.47h27.66v-4.47h-9.22v-37.54c3.49-3.48,9.1-7.46,15.08-7.46,7.6,0,12.08,4.35,12.08,12.93v32.07h-9.09v4.47h27.53v-4.47h-9.22v-34.56c0-10.56-4.61-17.9-14.7-17.9-8.22,0-14.08,5.1-18.56,9.33h-3.12V0l-21.05,7.83,11.83,5.22v79.43ZM730.44,49.47l-.63,33.93c0,9.82,6.85,14.8,14.7,14.8s14.71-4.35,17.82-12.93c-3.99,3.98-8.1,5.72-12.96,5.72-5.98,0-10.71-3.48-10.71-11.81v-30.95h18.19l3.61-5.47h-21.8v-12.56l-18.57,16.29,10.35,2.98ZM49.94,72.66l-3.97,2.88,27.63,9.52v-2.16l-23.65-10.24ZM32.81,85.05l40.78,6.74v-1.83l-35.88-8.45-4.9,3.54ZM59.27,65.91l-3.57,2.59,17.89,9.34v-2.84l-14.32-9.08ZM47.51,58.45l-5.52-3.51-4.67,3.97,5.82,3.04-6.32,5.04-5.96-2.58-4.96,4.22,6.19,2.13-9.12,7.28-10.5-2.47,8.88-7.54h0s6.03-5.13,6.03-5.13l.14-.12,19.68-16.73h0s26.39-22.43,26.39-22.43v-14.11L31.73,48.45l-4.08-2.61-5.37,5.21,4.26,2.22-6.79,6.31-7.53-3.26,7.05-6.84h0s5.59-5.42,5.59-5.42l.3-.29,14.52-14.08h0S62.49,7.58,62.49,7.58h-15.57l-29.58,31.72-1.63-1.03-3.43-2.19s2.04-2.45,2.6-3.13L35.97,7.58h-14.17L0,37.13v2.29l11.6,6.06L0,57.91v1.79l14.34,4.93L0,77.91v1.76l17.38,2.82L0,96.32v.62h73.59v-1.38l-57.77-2.69,10.26-7.42h0s6.96-5.04,6.96-5.04h0l.21-.15,12.82-9.28h0l.3-.22,21.12-15.28,6.1-4.42v-13.42l-26.08,20.8Z"/>
  </g>
</svg>